<svg width="105" height="105" viewBox="0 0 105 105" fill="none" xmlns="http://www.w3.org/2000/svg">
<path fill-rule="evenodd" clip-rule="evenodd" d="M57.9719 18.1403C57.5974 18.1134 57.2067 18.1 56.8 18.1C54.3333 18.1 52.3667 18.8333 50.9 20.3C49.5 21.7 48.8 23.8333 48.8 26.7V48.5L23.5 23.3C21.4333 21.3 19.6333 19.9333 18.1 19.2C16.6333 18.4 14.6667 18 12.2 18C8.6 18 5.83333 18.9667 3.9 20.9C1.96667 22.8333 1 25.7 1 29.5V77.8C1 80.9333 1.7 83.1667 3.1 84.5C4.5 85.8333 6.66667 86.5 9.6 86.5C12.2667 86.5 14.2 85.9 15.4 84.7C16.6667 83.5 17.3 81.2667 17.3 78V56.3L35.6 73.6C36.2 74.2 37.1667 75.1333 38.5 76.4C39.8333 77.6667 40.8 78.6 41.4 79.2C42.0667 79.7333 42.9333 80.5 44 81.5C45.1333 82.4333 46.0667 83.1333 46.8 83.6C47.5333 84.0667 48.3667 84.5667 49.3 85.1C50.3 85.6333 51.2333 86 52.1 86.2C52.9667 86.4 53.8333 86.5 54.7 86.5C55.8931 86.5 56.9838 86.3932 57.9719 86.1797V18.1403Z" fill="#FFEEEE"/>
<path fill-rule="evenodd" clip-rule="evenodd" d="M57.9719 86.2932C64.0477 85.2568 67.0856 80.3258 67.0856 71.5V61.8L72.5856 61.7C74.8522 61.7 76.6189 62.0333 77.8856 62.7C79.1522 63.3667 80.1856 64.8333 80.9855 67.1C81.7856 69.3 82.1856 72.4667 82.1856 76.6C82.1856 79.9333 83.0856 82.4333 84.8856 84.1C86.7522 85.7 89.6522 86.5 93.5856 86.5C96.3856 86.5 98.5522 86.1 100.086 85.3C101.619 84.5 102.786 82.9333 103.586 80.6C104.452 78.2 104.886 74.8 104.886 70.4C104.886 66.0667 103.519 62.4667 100.786 59.6C98.0522 56.6667 95.0856 55.1 91.8856 54.9C96.0856 53.7 99.1189 51.8333 100.986 49.3C102.919 46.7 103.886 43.1333 103.886 38.6C103.886 32.6 101.352 27.7 96.2855 23.9C91.2189 20.0333 84.5856 18.1 76.3855 18.1H57.9719V86.2932ZM78.8856 31.3C81.2189 32.5 82.3856 34.7 82.3856 37.9C82.3856 41.2333 81.1189 43.5667 78.5856 44.9C76.1189 46.1667 72.2856 46.8 67.0856 46.8V29.5C72.6189 29.5 76.5522 30.1 78.8856 31.3Z" fill="#FFEEEE"/>
</svg>
